<mxfile host="app.diagrams.net" agent="Mozilla/5.0 (Windows NT 10.0; Win64; x64) AppleWebKit/537.36 (KHTML, like Gecko) Chrome/134.0.0.0 Safari/537.36" version="26.1.1">
  <diagram name="Page-1" id="0X7rOOIuPS5jxGIWaM4l">
    <mxGraphModel dx="1434" dy="772" grid="1" gridSize="10" guides="1" tooltips="1" connect="1" arrows="1" fold="1" page="1" pageScale="1" pageWidth="827" pageHeight="1169" math="0" shadow="0">
      <root>
        <mxCell id="0" />
        <mxCell id="1" parent="0" />
        <mxCell id="kF4TwNIbmLCjzWJjfwEm-1" value="Aprentissage profond" style="ellipse;whiteSpace=wrap;html=1;fillColor=#f8cecc;strokeColor=#b85450;" vertex="1" parent="1">
          <mxGeometry x="120" width="450" height="370" as="geometry" />
        </mxCell>
        <mxCell id="kF4TwNIbmLCjzWJjfwEm-2" value="" style="ellipse;whiteSpace=wrap;html=1;fillColor=#e1d5e7;strokeColor=#9673a6;" vertex="1" parent="1">
          <mxGeometry x="200" y="87.5" width="340" height="275" as="geometry" />
        </mxCell>
        <mxCell id="kF4TwNIbmLCjzWJjfwEm-3" value="" style="ellipse;whiteSpace=wrap;html=1;fillColor=#dae8fc;strokeColor=#6c8ebf;" vertex="1" parent="1">
          <mxGeometry x="240" y="150" width="280" height="200" as="geometry" />
        </mxCell>
        <mxCell id="kF4TwNIbmLCjzWJjfwEm-4" value="" style="ellipse;whiteSpace=wrap;html=1;fillColor=#fff2cc;strokeColor=#d6b656;" vertex="1" parent="1">
          <mxGeometry x="275" y="195" width="190" height="135" as="geometry" />
        </mxCell>
        <mxCell id="kF4TwNIbmLCjzWJjfwEm-5" value="Intelligence artificielle" style="text;html=1;align=center;verticalAlign=middle;resizable=0;points=[];autosize=1;strokeColor=none;fillColor=none;fontStyle=1;fontSize=16;" vertex="1" parent="1">
          <mxGeometry x="260" y="57.5" width="180" height="30" as="geometry" />
        </mxCell>
        <mxCell id="kF4TwNIbmLCjzWJjfwEm-6" value="&lt;div&gt;&lt;span style=&quot;font-size: 15px;&quot;&gt;&lt;b&gt;Apprentissage automatique&lt;/b&gt;&lt;/span&gt;&lt;/div&gt;&lt;div&gt;&lt;span style=&quot;font-size: 15px;&quot;&gt;&lt;b&gt;(machine learning)&lt;/b&gt;&lt;/span&gt;&lt;/div&gt;" style="text;html=1;align=center;verticalAlign=middle;resizable=0;points=[];autosize=1;strokeColor=none;fillColor=none;" vertex="1" parent="1">
          <mxGeometry x="260" y="100" width="220" height="50" as="geometry" />
        </mxCell>
        <mxCell id="kF4TwNIbmLCjzWJjfwEm-7" value="RÃ©seaux de neurones" style="text;html=1;align=center;verticalAlign=middle;resizable=0;points=[];autosize=1;strokeColor=none;fillColor=none;fontSize=15;fontStyle=1" vertex="1" parent="1">
          <mxGeometry x="315" y="165" width="170" height="30" as="geometry" />
        </mxCell>
        <mxCell id="kF4TwNIbmLCjzWJjfwEm-8" value="&lt;b&gt;&lt;font style=&quot;font-size: 15px;&quot;&gt;Apprentissage profond&lt;/font&gt;&lt;/b&gt;&lt;div&gt;&lt;b&gt;&lt;font style=&quot;font-size: 15px;&quot;&gt;(deep learning)&lt;/font&gt;&lt;/b&gt;&lt;/div&gt;" style="text;html=1;align=center;verticalAlign=middle;resizable=0;points=[];autosize=1;strokeColor=none;fillColor=none;" vertex="1" parent="1">
          <mxGeometry x="275" y="237.5" width="190" height="50" as="geometry" />
        </mxCell>
      </root>
    </mxGraphModel>
  </diagram>
</mxfile>
